<?xml version="1.0" encoding="UTF-8" standalone="no"?>
<!-- Generator: Adobe Illustrator 24.1.0, SVG Export Plug-In . SVG Version: 6.00 Build 0)  -->

<svg
   xmlns:dc="http://purl.org/dc/elements/1.1/"
   xmlns:cc="http://creativecommons.org/ns#"
   xmlns:rdf="http://www.w3.org/1999/02/22-rdf-syntax-ns#"
   xmlns:svg="http://www.w3.org/2000/svg"
   xmlns="http://www.w3.org/2000/svg"
   xmlns:sodipodi="http://sodipodi.sourceforge.net/DTD/sodipodi-0.dtd"
   xmlns:inkscape="http://www.inkscape.org/namespaces/inkscape"
   version="1.1"
   id="KIN_logo_xA0_Bild_1_"
   x="0px"
   y="0px"
   viewBox="0 0 453.6 340.08"
   style="enable-background:new 0 0 453.6 340.08;"
   xml:space="preserve"
   sodipodi:docname="KIN_logo.svg"
   inkscape:export-filename="/home/lucy/Downloads/KIN_logo.png"
   inkscape:export-xdpi="96"
   inkscape:export-ydpi="96"
   inkscape:version="0.92.5 (2060ec1f9f, 2020-04-08)"><metadata
   id="metadata3779"><rdf:RDF><cc:Work
       rdf:about=""><dc:format>image/svg+xml</dc:format><dc:type
         rdf:resource="http://purl.org/dc/dcmitype/StillImage" /></cc:Work></rdf:RDF></metadata><defs
   id="defs3777" /><sodipodi:namedview
   pagecolor="#ffffff"
   bordercolor="#666666"
   borderopacity="1"
   objecttolerance="10"
   gridtolerance="10"
   guidetolerance="10"
   inkscape:pageopacity="0"
   inkscape:pageshadow="2"
   inkscape:window-width="1301"
   inkscape:window-height="744"
   id="namedview3775"
   showgrid="false"
   inkscape:zoom="1.7701718"
   inkscape:cx="226.8"
   inkscape:cy="170.03999"
   inkscape:window-x="65"
   inkscape:window-y="24"
   inkscape:window-maximized="1"
   inkscape:current-layer="KIN_logo_xA0_Bild_1_" />
<style
   type="text/css"
   id="style3766">
	.st0{fill:#FD0000;}
</style>
<g
   id="g3772">
	<path
   class="st0"
   d="M283.1,119.79c-0.33-0.57-1.13-2.08-1.97-1.79c-0.41,0.14-0.45,0.52-0.45,0.89c0.01,1.96,0.02,3.92,0.02,5.88   c-0.01,32.16-0.02,64.31-0.02,96.47c0,26.88,0.01,53.76,0.02,80.63c0,2.04,0,2.04-2.07,2.04c-12.04,0-24.08,0-36.12-0.01   c-2.09,0-2.09,0-2.09-2.02c0-29.04,0.01-58.08,0.01-87.11c0-58.68,0-117.35,0-176.03c0-1.39,0.22-1.6,1.71-1.64   c11.19-0.28,22.38-0.29,33.57-0.24c1.55,0.01,3.1-0.09,4.64,0.03c0.99,0.08,1.81,0.55,2.38,1.55   c40.61,70.95,69.8,120.07,105.43,182.86c0.35,0.61,1.28,2.46,2.08,2.19c0.32-0.11,0.57-0.34,0.62-0.68c0.06-0.39,0.05-0.8,0.05-1.2   c-0.01-31.91-0.02-63.81-0.02-95.72c0-29.13,0-58.27,0.01-87.4c0-1.36,0.48-1.87,1.87-1.87c12.16,0,24.32,0,36.48,0.01   c1.45,0,1.89,0.47,1.89,1.98c0.01,10.72,0.02,21.44,0.02,32.16c0,54,0,107.99,0,161.99c0,23,0,46,0,68.99   c0,2.14-0.01,2.15-2.13,2.15c-12.64,0-25.28-0.03-37.92,0.04c-1.51,0.01-2.31-0.71-2.89-1.85   C374.06,273.91,315.09,174.95,283.1,119.79z"
   id="path3768" />
	<path
   class="st0"
   d="M70.15,97.52c0.86-0.56,1.75-1.08,2.58-1.64 M119.81,67.99c1.09-0.68,2.25-1.38,3.34-2.01   c2.11-1.22,3.94-2.4,6.03-3.62c7.35-4.3,14.47-8.79,21.92-12.91c6.62-3.66,13.66-7.6,20.1-11.62c1.25-0.78,2.74-0.67,4.08-0.68   c12.04-0.08,24.08-0.04,36.12-0.03c1.13,0,2.55,0.1,2.55,1.54c-0.01,6.6,0.01,13.2-0.01,19.8c-0.01,2.77-0.03,5.54-0.02,8.32   c0.05,18.26,0.03,36.53,0.03,54.79c0,11.04,0.03,22.08-0.02,33.12c-0.01,2.74-0.15,5.49-0.12,8.22c0.05,5.42,0.14,10.84,0.14,16.26   c0,25.24,0.01,50.48-0.02,75.71c0,2.89-0.02,5.78-0.01,8.68c0.05,11.54,0.02,23.09,0.03,34.63c0,1.39-0.26,2.76-0.02,4.16   c0.19,1.12-0.33,1.59-1.49,1.58c-3.44-0.04-6.88-0.01-10.32-0.01c-9.08,0-18.16-0.02-27.24,0.01c-2.15,0.01-1.22-7.59-1.33-9.75   c-0.35-6.61-6.8-13.68-9.87-18.57c-11.51-18.3-23.82-36.12-35.17-54.54c-17.6-28.59-28.76-45.08-63.42-58.2   c-1.28-0.48-1.81-0.19-1.82,1.2c-0.01,5.32,0,10.64,0,15.96c0.01,35.76-0.03,71.52,0.09,107.27c0.01,4.59,0.16,9.18,0.14,13.77   c-0.01,2.99-0.17,2.82-2.77,2.83c-11.92,0.02-23.84,0.01-35.76,0.01c-1.8,0-1.95-0.1-1.97-1.97c-0.04-2.72-0.02-5.44,0-8.16   c0.49-75.35,0.07-150.7,0.21-226.05c0.02-9.6,0-19.2,0.01-28.8c0-1.82,0.02-1.82,1.79-1.82c11.32,0,22.64,0,33.96-0.01   c0.97,0,1.97-0.04,2.94,0c0.79,0.03,1.4,0.71,1.4,1.49c0.09,19.5-0.62,35.93,0,59.95c0.01,0.47-0.13,1.17,0.62,2.01 M96.47,81.74   c1.75-1.09,3.38-2.16,5.5-3.18 M82.74,89.81 M102.58,125.21 M120.27,115.02c-2,1.1-3.94,2.3-5.94,3.4 M138.59,104.22   c-1.19,0.81-2.46,1.55-3.72,2.26c-1.12,0.63-2.19,1.4-3.36,1.86c-1.3,0.52-2.34,1.42-3.58,2.02 M145.08,100.45 M93.96,130.4   c-1.06,0.48-1.29,1.83-0.08,2.51c13.04,7.42,25.87,14.38,38.45,22.53c3.3,2.39,5.51,6.64,7.97,9.82   c10.72,13.83,19.1,29.39,28.62,43.97c1.15,1.77,2.37,3.49,3.57,5.23c0.1,0.15,0.29,0.35,0.44,0.35c0.76,0.01,0.58-2.52,0.58-3.02   c0-20.76,0-41.51,0-62.27c0,0-0.01,0-0.01,0c0-21.16,0-42.31,0-63.47c0-0.45,0.1-1.15-0.05-1.57c-0.11-0.31-0.53-0.29-0.79-0.08"
   id="path3770" />
</g>
</svg>