<?xml version="1.0" standalone="no"?>
<!DOCTYPE svg PUBLIC "-//W3C//DTD SVG 20010904//EN"
 "http://www.w3.org/TR/2001/REC-SVG-20010904/DTD/svg10.dtd">
<svg version="1.0" xmlns="http://www.w3.org/2000/svg"
 width="908.000000pt" height="908.000000pt" viewBox="0 0 908.000000 908.000000"
 preserveAspectRatio="xMidYMid meet">
<metadata>
Created by potrace 1.11, written by Peter Selinger 2001-2013
</metadata>
<g transform="translate(0.000000,908.000000) scale(0.100000,-0.100000)"
fill="#000000" stroke="none">
<path d="M4960 7200 c0 -3 -28 -4 -62 -3 -35 1 -68 -3 -74 -8 -17 -14 -17
-5314 0 -5327 8 -7 726 -10 783 -3 8 1 12 29 12 94 -1 50 0 97 1 102 1 6 1 15
0 20 -6 27 -4 225 2 225 4 0 5 7 2 15 -9 23 -10 2465 -1 2465 5 0 5 5 1 11 -6
10 -9 205 -3 227 1 4 1 11 0 15 -1 8 -2 422 -1 509 0 51 22 41 61 -26 16 -28
34 -58 39 -66 9 -14 145 -247 192 -330 74 -128 133 -227 144 -240 7 -8 12 -17
11 -20 0 -3 6 -16 15 -30 44 -71 211 -358 244 -420 11 -19 21 -37 25 -40 4 -4
229 -387 282 -480 10 -19 42 -73 70 -120 27 -47 58 -98 67 -115 28 -49 330
-569 340 -585 38 -62 100 -174 100 -181 0 -5 5 -9 10 -9 6 0 10 -4 10 -9 0 -5
32 -65 71 -133 39 -67 81 -141 93 -163 13 -22 54 -94 91 -160 106 -185 134
-237 153 -275 9 -19 19 -37 22 -40 3 -3 12 -18 20 -35 8 -16 27 -51 42 -77 15
-27 25 -48 23 -48 -9 0 47 -78 58 -82 10 -4 799 -3 820 1 4 0 7 1200 7 2665 0
2119 -3 2666 -12 2673 -19 15 -777 11 -786 -4 -4 -6 -7 -841 -6 -1855 0 -1077
-3 -1851 -9 -1861 -8 -18 -9 -18 -25 0 -10 10 -26 36 -38 58 -12 22 -56 101
-99 175 -42 74 -93 164 -113 200 -19 36 -43 77 -54 92 -10 14 -18 29 -18 33 0
4 -8 19 -18 33 -11 15 -32 52 -49 82 -32 58 -87 155 -103 180 -5 8 -22 39 -37
68 -15 28 -31 52 -35 52 -4 0 -8 5 -8 11 0 6 -31 64 -70 130 -38 66 -70 124
-70 130 0 5 -4 9 -10 9 -5 0 -10 4 -10 10 0 5 -13 31 -29 57 -59 98 -109 188
-107 193 0 3 -5 12 -12 20 -14 16 -56 82 -57 90 0 3 -8 16 -17 30 -35 55 -88
152 -88 161 0 5 -4 9 -10 9 -5 0 -10 4 -10 10 0 5 -18 39 -40 75 -22 36 -40
67 -40 70 0 2 -26 48 -58 102 -50 84 -123 210 -283 486 -19 32 -48 83 -64 113
-17 30 -36 59 -43 66 -7 7 -12 16 -12 21 0 4 -23 47 -52 95 -28 48 -65 112
-81 142 -17 30 -41 72 -54 92 -13 21 -23 42 -23 48 0 5 -4 10 -10 10 -5 0 -10
5 -10 10 0 6 -10 27 -23 48 -13 20 -37 62 -54 92 -16 30 -39 71 -50 90 -11 19
-57 99 -103 178 -66 114 -87 143 -108 149 -31 8 -662 11 -662 3z"/>
<path d="M472 7191 c-4 -3 -7 -1202 -7 -2664 0 -2064 3 -2659 12 -2665 7 -4
187 -7 400 -7 l388 0 0 1407 c1 893 4 1411 10 1417 6 6 23 3 45 -7 19 -9 53
-23 75 -31 53 -19 205 -92 285 -137 173 -98 355 -246 465 -378 22 -27 47 -56
56 -65 45 -47 229 -311 229 -328 0 -6 7 -13 15 -17 8 -3 15 -10 15 -16 0 -9
46 -87 60 -100 5 -5 18 -27 44 -75 6 -11 14 -22 17 -25 3 -3 30 -45 60 -95 29
-49 62 -99 71 -109 10 -11 18 -23 18 -28 0 -4 36 -62 80 -129 44 -66 80 -124
80 -130 0 -5 5 -9 10 -9 6 0 10 -7 10 -15 0 -8 5 -15 10 -15 6 0 10 -5 10 -10
0 -6 5 -16 11 -23 21 -24 201 -303 210 -324 4 -13 13 -23 19 -23 5 0 10 -4 10
-10 0 -9 110 -180 187 -290 86 -123 106 -182 105 -304 0 -146 -45 -132 408
-131 214 0 392 3 396 7 4 5 8 1201 8 2659 1 2493 0 2652 -16 2663 -13 9 -122
12 -420 11 l-403 0 -77 -48 c-42 -26 -81 -47 -86 -47 -6 0 -12 -4 -14 -8 -1
-4 -70 -45 -153 -91 -82 -46 -198 -112 -256 -147 -59 -35 -112 -64 -118 -64
-6 0 -11 -5 -11 -10 0 -6 -18 -17 -40 -26 -22 -9 -40 -20 -40 -24 0 -5 -9 -12
-20 -15 -11 -4 -78 -41 -148 -84 -193 -118 -423 -251 -433 -251 -5 0 -9 -4 -9
-8 0 -4 -12 -13 -27 -20 -16 -6 -73 -39 -128 -72 -55 -33 -116 -68 -135 -78
-19 -9 -37 -20 -40 -23 -3 -3 -39 -25 -80 -49 -41 -23 -88 -51 -105 -61 -16
-10 -52 -30 -80 -44 -27 -15 -57 -33 -66 -41 -8 -8 -21 -14 -27 -14 -6 0 -17
-6 -24 -14 -8 -7 -23 -16 -35 -20 -18 -6 -21 -2 -25 31 -3 21 -4 303 -3 626 1
409 -2 590 -9 595 -13 8 -773 11 -784 3z m3001 -2229 c0 -708 -2 -1296 -2
-1306 -1 -18 -3 -18 -26 4 -14 13 -25 29 -25 36 0 7 -4 14 -9 16 -5 2 -56 80
-114 173 -58 94 -111 176 -117 183 -6 6 -8 12 -6 12 5 0 -34 64 -54 87 -5 7
-10 17 -10 23 0 5 -4 10 -10 10 -5 0 -10 4 -10 10 0 18 -254 398 -281 420 -3
3 -24 32 -47 65 -55 80 -82 110 -128 142 -40 27 -414 253 -419 253 -2 0 -42
23 -90 50 -48 28 -88 50 -90 50 -15 0 -169 102 -171 113 -1 7 32 34 75 59 141
84 416 245 458 269 202 116 249 143 253 148 3 3 30 19 60 35 30 16 62 34 70
41 8 7 40 26 70 42 30 17 179 103 330 192 151 88 280 161 285 161 7 0 9 -435
8 -1288z"/>
</g>
</svg>
