<?xml version="1.0" encoding="UTF-8"?>
<svg xmlns="http://www.w3.org/2000/svg" xmlns:xlink="http://www.w3.org/1999/xlink" width="32pt" height="22pt" viewBox="0 0 32 22" version="1.1">
<g id="surface1">
<path style=" stroke:none;fill-rule:nonzero;fill:rgb(15.686275%,15.686275%,15.686275%);fill-opacity:1;" d="M 31.269531 3.5 C 30.90625 2.160156 29.832031 1.101562 28.457031 0.738281 C 25.964844 0.101562 16 0.101562 16 0.101562 C 16 0.101562 6.21875 0.0585938 3.726562 0.699219 C 2.347656 1.058594 1.03125 2.160156 0.667969 3.5 C 0 5.941406 0.0625 11 0.0625 11 C 0.0625 11 0 16.058594 0.667969 18.5 C 1.03125 19.839844 2.371094 20.941406 3.726562 21.300781 C 6.21875 21.960938 16 21.898438 16 21.898438 C 16 21.898438 25.78125 21.941406 28.273438 21.300781 C 29.652344 20.941406 30.925781 19.839844 31.292969 18.5 C 31.960938 16.078125 31.960938 11 31.960938 11 C 31.960938 11 31.9375 5.941406 31.269531 3.5 Z M 31.269531 3.5 "/>
<path style=" stroke:none;fill-rule:nonzero;fill:rgb(100%,100%,100%);fill-opacity:1;" d="M 12.941406 15.839844 L 20.902344 11 L 12.941406 6.160156 Z M 12.941406 15.839844 "/>
</g>
</svg>
